<svg id="visual" viewBox="0 0 150 1000" width="150" height="1000" xmlns="http://www.w3.org/2000/svg" xmlns:xlink="http://www.w3.org/1999/xlink" version="1.1"><rect x="0" y="0" width="150" height="1000" fill="#111111"></rect><path d="M113 0L102.3 27.8C91.7 55.7 70.3 111.3 68.3 166.8C66.3 222.3 83.7 277.7 82.7 333.2C81.7 388.7 62.3 444.3 58.3 500C54.3 555.7 65.7 611.3 76.3 666.8C87 722.3 97 777.7 93.8 833.2C90.7 888.7 74.3 944.3 66.2 972.2L58 1000L0 1000L0 972.2C0 944.3 0 888.7 0 833.2C0 777.7 0 722.3 0 666.8C0 611.3 0 555.7 0 500C0 444.3 0 388.7 0 333.2C0 277.7 0 222.3 0 166.8C0 111.3 0 55.7 0 27.8L0 0Z" fill="#000000" stroke-linecap="round" stroke-linejoin="miter"></path></svg>