<svg id="visual" viewBox="0 0 1920 350" width="1920" height="350" xmlns="http://www.w3.org/2000/svg" xmlns:xlink="http://www.w3.org/1999/xlink" version="1.1"><rect x="0" y="0" width="1920" height="350" fill="#FFFFFF"></rect><path d="M0 66L22.8 76.8C45.7 87.7 91.3 109.3 137 119.3C182.7 129.3 228.3 127.7 274 117.8C319.7 108 365.3 90 411.2 86.2C457 82.3 503 92.7 548.8 95.3C594.7 98 640.3 93 686 93.5C731.7 94 777.3 100 823 104.7C868.7 109.3 914.3 112.7 960 112.7C1005.7 112.7 1051.3 109.3 1097 112C1142.7 114.7 1188.3 123.3 1234 123.7C1279.7 124 1325.3 116 1371.2 107C1417 98 1463 88 1508.8 90.7C1554.7 93.3 1600.3 108.7 1646 108.5C1691.7 108.3 1737.3 92.7 1783 86.3C1828.7 80 1874.3 83 1897.2 84.5L1920 86L1920 351L1897.2 351C1874.3 351 1828.7 351 1783 351C1737.3 351 1691.7 351 1646 351C1600.3 351 1554.7 351 1508.8 351C1463 351 1417 351 1371.2 351C1325.3 351 1279.7 351 1234 351C1188.3 351 1142.7 351 1097 351C1051.3 351 1005.7 351 960 351C914.3 351 868.7 351 823 351C777.3 351 731.7 351 686 351C640.3 351 594.7 351 548.8 351C503 351 457 351 411.2 351C365.3 351 319.7 351 274 351C228.3 351 182.7 351 137 351C91.3 351 45.7 351 22.8 351L0 351Z" fill="#d94c1a"></path><path d="M0 144L22.8 146C45.7 148 91.3 152 137 158.7C182.7 165.3 228.3 174.7 274 173C319.7 171.3 365.3 158.7 411.2 154.5C457 150.3 503 154.7 548.8 155.7C594.7 156.7 640.3 154.3 686 157.2C731.7 160 777.3 168 823 171C868.7 174 914.3 172 960 166.7C1005.7 161.3 1051.3 152.7 1097 151.2C1142.7 149.7 1188.3 155.3 1234 150C1279.7 144.7 1325.3 128.3 1371.2 121.2C1417 114 1463 116 1508.8 118.8C1554.7 121.7 1600.3 125.3 1646 125C1691.7 124.7 1737.3 120.3 1783 129.2C1828.7 138 1874.3 160 1897.2 171L1920 182L1920 351L1897.2 351C1874.3 351 1828.7 351 1783 351C1737.3 351 1691.7 351 1646 351C1600.3 351 1554.7 351 1508.8 351C1463 351 1417 351 1371.2 351C1325.3 351 1279.7 351 1234 351C1188.3 351 1142.7 351 1097 351C1051.3 351 1005.7 351 960 351C914.3 351 868.7 351 823 351C777.3 351 731.7 351 686 351C640.3 351 594.7 351 548.8 351C503 351 457 351 411.2 351C365.3 351 319.7 351 274 351C228.3 351 182.7 351 137 351C91.3 351 45.7 351 22.8 351L0 351Z" fill="#923a1b"></path><path d="M0 254L22.8 243.2C45.7 232.3 91.3 210.7 137 202.8C182.7 195 228.3 201 274 210C319.7 219 365.3 231 411.2 226.2C457 221.3 503 199.7 548.8 189.5C594.7 179.3 640.3 180.7 686 183.3C731.7 186 777.3 190 823 192.8C868.7 195.7 914.3 197.3 960 194.8C1005.7 192.3 1051.3 185.7 1097 184.5C1142.7 183.3 1188.3 187.7 1234 198.8C1279.7 210 1325.3 228 1371.2 232.8C1417 237.7 1463 229.3 1508.8 230.2C1554.7 231 1600.3 241 1646 243.8C1691.7 246.7 1737.3 242.3 1783 240.2C1828.7 238 1874.3 238 1897.2 238L1920 238L1920 351L1897.2 351C1874.3 351 1828.7 351 1783 351C1737.3 351 1691.7 351 1646 351C1600.3 351 1554.7 351 1508.8 351C1463 351 1417 351 1371.2 351C1325.3 351 1279.7 351 1234 351C1188.3 351 1142.7 351 1097 351C1051.3 351 1005.7 351 960 351C914.3 351 868.7 351 823 351C777.3 351 731.7 351 686 351C640.3 351 594.7 351 548.8 351C503 351 457 351 411.2 351C365.3 351 319.7 351 274 351C228.3 351 182.7 351 137 351C91.3 351 45.7 351 22.8 351L0 351Z" fill="#502718"></path><path d="M0 263L22.8 262.8C45.7 262.7 91.3 262.3 137 267C182.7 271.7 228.3 281.3 274 286.5C319.7 291.7 365.3 292.3 411.2 288.3C457 284.3 503 275.7 548.8 277.3C594.7 279 640.3 291 686 298.3C731.7 305.7 777.3 308.3 823 303C868.7 297.7 914.3 284.3 960 276.5C1005.7 268.7 1051.3 266.3 1097 268.7C1142.7 271 1188.3 278 1234 276.3C1279.7 274.7 1325.3 264.3 1371.2 262.8C1417 261.3 1463 268.7 1508.8 277.7C1554.7 286.7 1600.3 297.3 1646 292.7C1691.7 288 1737.3 268 1783 261.2C1828.7 254.3 1874.3 260.7 1897.2 263.8L1920 267L1920 351L1897.2 351C1874.3 351 1828.7 351 1783 351C1737.3 351 1691.7 351 1646 351C1600.3 351 1554.7 351 1508.8 351C1463 351 1417 351 1371.2 351C1325.3 351 1279.7 351 1234 351C1188.3 351 1142.7 351 1097 351C1051.3 351 1005.7 351 960 351C914.3 351 868.7 351 823 351C777.3 351 731.7 351 686 351C640.3 351 594.7 351 548.8 351C503 351 457 351 411.2 351C365.3 351 319.7 351 274 351C228.3 351 182.7 351 137 351C91.3 351 45.7 351 22.8 351L0 351Z" fill="#121212"></path></svg>